# xmcd CD database file
#
# Track frame offsets:
#	150
#	17078
#	34164
#	47946
#	72983
#	92595
#	117735
#	132001
#	160296
#	186921
#	207380
#	226484
#
# Disc length: 3220 seconds
#
# Revision: 4
# Processed by: cddbd v1.5.1PL0 Copyright (c) Steve Scherf et al.
# Submitted via: CDex 1.51
#
DISCID=ac0c920c
DTITLE=Syrius - Széttört álmok
DYEAR=1976
DGENRE=Jazz
TTITLE0=Hajnali ének
TTITLE1=Hol az az ember
TTITLE2=Mind április
TTITLE3=A láz
TTITLE4=Széttört álmok
TTITLE5=Kinyújtom a kezem
TTITLE6=Hová mehetnék
TTITLE7=Igen, szép volt
TTITLE8=Széparcú idegen
TTITLE9=Csendes kiáltás
TTITLE10=Ha meghallod ezt a dalt
TTITLE11=Szép az élet
EXTD=YEAR: 1976
EXTT0=
EXTT1=
EXTT2=
EXTT3=
EXTT4=
EXTT5=
EXTT6=
EXTT7=
EXTT8=
EXTT9=
EXTT10=
EXTT11=
PLAYORDER=
